<?xml version="1.0" encoding="iso-8859-1"?>
<!-- Generator: Adobe Illustrator 18.0.0, SVG Export Plug-In . SVG Version: 6.00 Build 0)  -->
<!DOCTYPE svg PUBLIC "-//W3C//DTD SVG 1.1//EN" "http://www.w3.org/Graphics/SVG/1.1/DTD/svg11.dtd">
<svg xmlns="http://www.w3.org/2000/svg" xmlns:xlink="http://www.w3.org/1999/xlink" version="1.1" id="Capa_1" x="0px" y="0px" viewBox="0 0 473.458 473.458" style="enable-background:new 0 0 473.458 473.458;" xml:space="preserve" width="512px" height="512px">
<g>
	<path d="M159.407,231.392h-2.205c-2.851,0-5.563,1.201-7.475,3.314c-10.297,11.337-24.207,18.419-39.705,18.419   c-15.491,0-29.394-7.082-39.675-18.419c-1.912-2.105-4.632-3.314-7.475-3.314h-2.205C27.159,231.392,0,258.543,0,292.036v82.479   c0,5.572,4.523,10.097,10.095,10.097h199.852c5.573,0,10.097-4.524,10.097-10.097v-82.479   C220.044,258.543,192.9,231.392,159.407,231.392z" fill="#D80027"/>
	<circle cx="110.022" cy="146.062" r="57.215" fill="#D80027"/>
	<path d="M412.821,231.392h-2.203c-2.852,0-5.564,1.201-7.475,3.314c-10.297,11.337-24.207,18.419-39.707,18.419   c-15.49,0-29.393-7.082-39.673-18.419c-1.912-2.105-4.632-3.314-7.477-3.314h-2.203c-33.51,0-60.669,27.151-60.669,60.644v82.479   c0,5.572,4.525,10.097,10.097,10.097h199.852c5.572,0,10.095-4.524,10.095-10.097v-82.479   C473.458,258.543,446.315,231.392,412.821,231.392z" fill="#D80027"/>
	<circle cx="363.436" cy="146.062" r="57.215" fill="#D80027"/>
	<path d="M199.251,153.954h74.972c4.363,0,7.892-3.529,7.892-7.892c0-4.362-3.529-7.892-7.892-7.892h-74.972   c-4.362,0-7.892,3.529-7.892,7.892C191.359,150.424,194.889,153.954,199.251,153.954z" fill="#D80027"/>
	<path d="M275.849,185.69l-74.972-15.784c-4.224-0.925-8.454,1.836-9.349,6.098c-0.901,4.262,1.834,8.453,6.097,9.349l74.972,15.783   c0.546,0.115,1.094,0.169,1.634,0.169c3.652,0,6.935-2.551,7.713-6.266C282.847,190.777,280.11,186.584,275.849,185.69z" fill="#D80027"/>
	<path d="M199.243,122.387c0.54,0,1.086-0.055,1.634-0.169l74.972-15.784c4.261-0.895,6.998-5.087,6.096-9.349   c-0.893-4.27-5.093-6.982-9.347-6.097l-74.972,15.783c-4.263,0.895-6.999,5.087-6.097,9.349   C192.306,119.836,195.591,122.387,199.243,122.387z" fill="#D80027"/>
</g>
<g>
</g>
<g>
</g>
<g>
</g>
<g>
</g>
<g>
</g>
<g>
</g>
<g>
</g>
<g>
</g>
<g>
</g>
<g>
</g>
<g>
</g>
<g>
</g>
<g>
</g>
<g>
</g>
<g>
</g>
</svg>
